<svg width="20" height="20" viewBox="0 0 20 20" fill="none" xmlns="http://www.w3.org/2000/svg">
<path d="M18.1818 0H1.81818C0.813636 0 0 0.813636 0 1.81818V18.1818C0 19.1864 0.813636 20 1.81818 20H18.1818C19.1864 20 20 19.1864 20 18.1818V1.81818C20 0.813636 19.1864 0 18.1818 0ZM15.4545 10.9091H4.54545C4.04364 10.9091 3.63636 10.5018 3.63636 10C3.63636 9.49818 4.04364 9.09091 4.54545 9.09091H15.4545C15.9564 9.09091 16.3636 9.49818 16.3636 10C16.3636 10.5018 15.9564 10.9091 15.4545 10.9091Z" fill="#1A1A1A"/>
</svg>
