<svg width="25" height="15" viewBox="0 0 25 15" fill="none" xmlns="http://www.w3.org/2000/svg">
<path d="M8.62574 7.06673e-05C8.53383 0.00178174 8.4422 0.0086168 8.35155 0.0205234H0.961631C0.706624 0.0205432 0.462069 0.0993548 0.281751 0.239625C0.101434 0.379895 0.000121657 0.570136 9.61605e-05 0.768508V2.26448C-0.0017058 2.36359 0.0218338 2.462 0.0693469 2.55398C0.11686 2.64596 0.187399 2.72967 0.276864 2.80026C0.36633 2.87085 0.472938 2.9269 0.590492 2.96516C0.708047 3.00341 0.834203 3.02311 0.961631 3.02311C1.08906 3.02311 1.21522 3.00341 1.33277 2.96516C1.45032 2.9269 1.55693 2.87085 1.6464 2.80026C1.73586 2.72967 1.8064 2.64596 1.85392 2.55398C1.90143 2.462 1.92497 2.36359 1.92317 2.26448V1.51649H6.73084V13.4842H5.76931C5.64189 13.4828 5.51539 13.5012 5.39715 13.5381C5.27891 13.5751 5.1713 13.6299 5.08056 13.6995C4.98982 13.7691 4.91776 13.8521 4.86858 13.9435C4.8194 14.035 4.79408 14.1331 4.79408 14.2322C4.79408 14.3314 4.8194 14.4295 4.86858 14.5209C4.91776 14.6124 4.98982 14.6953 5.08056 14.7649C5.1713 14.8345 5.27891 14.8894 5.39715 14.9263C5.51539 14.9633 5.64189 14.9816 5.76931 14.9802H8.34216C8.54861 15.0066 8.75921 15.0066 8.96566 14.9802H11.5385C11.6659 14.9816 11.7924 14.9633 11.9107 14.9263C12.0289 14.8894 12.1365 14.8345 12.2273 14.7649C12.318 14.6953 12.3901 14.6124 12.4392 14.5209C12.4884 14.4295 12.5137 14.3314 12.5137 14.2322C12.5137 14.1331 12.4884 14.035 12.4392 13.9435C12.3901 13.8521 12.318 13.7691 12.2273 13.6995C12.1365 13.6299 12.0289 13.5751 11.9107 13.5381C11.7924 13.5012 11.6659 13.4828 11.5385 13.4842H10.577V1.51649H15.3847V2.26448C15.3829 2.36359 15.4064 2.462 15.4539 2.55398C15.5014 2.64596 15.572 2.72967 15.6614 2.80026C15.7509 2.87085 15.8575 2.9269 15.975 2.96516C16.0926 3.00341 16.2188 3.02311 16.3462 3.02311C16.4736 3.02311 16.5998 3.00341 16.7173 2.96516C16.8349 2.9269 16.9415 2.87085 17.031 2.80026C17.1204 2.72967 17.191 2.64596 17.2385 2.55398C17.286 2.462 17.3095 2.36359 17.3077 2.26448V0.768508C17.3077 0.570136 17.2064 0.379895 17.0261 0.239625C16.8457 0.0993548 16.6012 0.0205432 16.3462 0.0205234H8.9619C8.85083 0.00606307 8.73835 -0.000780764 8.62574 7.06673e-05ZM22.1154 0.0205234L19.2308 2.26448H21.1539V12.7363H19.2308L22.1154 14.9802L25 12.7363H23.0769V2.26448H25L22.1154 0.0205234Z" fill="black"/>
</svg>
