<?xml version="1.0" standalone="no"?>
<!DOCTYPE svg PUBLIC "-//W3C//DTD SVG 20010904//EN"
 "http://www.w3.org/TR/2001/REC-SVG-20010904/DTD/svg10.dtd">
<svg version="1.0" xmlns="http://www.w3.org/2000/svg"
 width="96.000000pt" height="96.000000pt" viewBox="0 0 96.000000 96.000000"
 preserveAspectRatio="xMidYMid meet">

<g transform="translate(0.000000,96.000000) scale(0.100000,-0.100000)"
fill="#0077ff" stroke="none">
<path d="M457 774 c-4 -4 -7 -65 -7 -135 l0 -128 -132 -3 -133 -3 0 -25 0 -25
132 -3 132 -3 3 -132 3 -132 25 0 25 0 3 132 3 132 132 3 132 3 0 25 0 25
-132 3 -132 3 -3 132 c-3 124 -4 132 -23 135 -12 2 -24 0 -28 -4z"/>
</g>
</svg>
