<svg width="20" height="20" viewBox="0 0 20 20" fill="none" xmlns="http://www.w3.org/2000/svg">
<path d="M1.81818 0C0.813636 0 0 0.813636 0 1.81818V18.1818C0 19.1864 0.813636 20 1.81818 20H18.1818C19.1864 20 20 19.1864 20 18.1818V1.81818C20 0.813636 19.1864 0 18.1818 0H1.81818ZM2.72727 5.45455H5.65518C7.49428 5.45455 8.76243 6.19344 8.76243 7.54616C8.76243 8.67162 7.88422 9.41332 6.98331 9.63423C8.29695 9.91423 9.14582 10.7092 9.15128 11.9656C9.15855 13.5601 7.81212 14.5222 6.69212 14.5277C6.17666 14.5295 2.73615 14.5455 2.73615 14.5455L2.72727 5.45455ZM10.9091 5.45455H13.837C15.6761 5.45455 16.9442 6.19344 16.9442 7.54616C16.9442 8.67162 16.066 9.41332 15.1651 9.63423C16.4788 9.91423 17.3276 10.7092 17.3331 11.9656C17.3404 13.5601 15.9939 14.5222 14.8739 14.5277C14.3585 14.5295 10.918 14.5455 10.918 14.5455L10.9091 5.45455ZM4.48686 6.87145V9.19212H5.73509C6.27327 9.19121 6.96911 8.74864 6.96911 8.01136C6.96911 7.27409 6.52469 6.87145 5.48651 6.87145H4.48686ZM12.6687 6.87145V9.19212H13.9169C14.4551 9.19121 15.1509 8.74864 15.1509 8.01136C15.1509 7.27409 14.7065 6.87145 13.6683 6.87145H12.6687ZM4.48864 10.5629V13.1481H5.91974C6.53611 13.1481 7.33487 12.7333 7.33487 11.8342C7.33578 11.0733 6.82565 10.5629 5.63565 10.5629H4.48864ZM12.6705 10.5629V13.1481H14.1016C14.7179 13.1481 15.5167 12.7333 15.5167 11.8342C15.5176 11.0733 15.0075 10.5629 13.8175 10.5629H12.6705Z" fill="#1A1A1A"/>
</svg>
