<svg width="20" height="20" viewBox="0 0 20 20" fill="none" xmlns="http://www.w3.org/2000/svg">
<path d="M3.83418 0.000110748C3.63043 0.00386997 3.43627 0.102889 3.29431 0.275437C3.15235 0.447984 3.07419 0.679962 3.07698 0.920458V19.0791C3.07553 19.1994 3.09437 19.3189 3.13238 19.4305C3.17039 19.5422 3.22682 19.6438 3.29839 19.7295C3.36996 19.8152 3.45525 19.8832 3.54929 19.9296C3.64333 19.9761 3.74426 20 3.8462 20C3.94814 20 4.04907 19.9761 4.14311 19.9296C4.23715 19.8832 4.32244 19.8152 4.39401 19.7295C4.46558 19.6438 4.52202 19.5422 4.56003 19.4305C4.59804 19.3189 4.61687 19.1994 4.61543 19.0791V0.920458C4.61684 0.798986 4.59758 0.678415 4.5588 0.565885C4.52002 0.453356 4.4625 0.351156 4.38965 0.265337C4.3168 0.179518 4.23011 0.111825 4.13469 0.0662674C4.03928 0.0207097 3.93709 -0.00178648 3.83418 0.000110748V0.000110748ZM16.1418 0.000110748C15.938 0.00386997 15.7439 0.102889 15.6019 0.275437C15.4599 0.447984 15.3818 0.679962 15.3846 0.920458V19.0791C15.3831 19.1994 15.402 19.3189 15.44 19.4305C15.478 19.5422 15.5344 19.6438 15.606 19.7295C15.6776 19.8152 15.7628 19.8832 15.8569 19.9296C15.9509 19.9761 16.0519 20 16.1538 20C16.2557 20 16.3567 19.9761 16.4507 19.9296C16.5448 19.8832 16.63 19.8152 16.7016 19.7295C16.7732 19.6438 16.8296 19.5422 16.8676 19.4305C16.9056 19.3189 16.9245 19.1994 16.923 19.0791V0.920458C16.9244 0.798986 16.9052 0.678415 16.8664 0.565885C16.8276 0.453356 16.7701 0.351156 16.6972 0.265337C16.6244 0.179518 16.5377 0.111825 16.4423 0.0662674C16.3469 0.0207097 16.2447 -0.00178648 16.1418 0.000110748V0.000110748ZM0.757283 3.63185C0.553534 3.63561 0.359373 3.73463 0.217411 3.90717C0.0754497 4.07972 -0.00271328 4.3117 7.69281e-05 4.55219V15.4474C-0.00136464 15.5677 0.017467 15.6872 0.0554773 15.7988C0.0934876 15.9105 0.149918 16.0121 0.221491 16.0978C0.293063 16.1834 0.378349 16.2515 0.472392 16.2979C0.566435 16.3444 0.66736 16.3683 0.769302 16.3683C0.871243 16.3683 0.972168 16.3444 1.06621 16.2979C1.16025 16.2515 1.24554 16.1834 1.31711 16.0978C1.38869 16.0121 1.44512 15.9105 1.48313 15.7988C1.52114 15.6872 1.53997 15.5677 1.53853 15.4474V4.55219C1.53994 4.43072 1.52068 4.31015 1.4819 4.19762C1.44312 4.08509 1.3856 3.98289 1.31275 3.89707C1.2399 3.81125 1.15321 3.74356 1.05779 3.698C0.962381 3.65245 0.860194 3.62995 0.757283 3.63185V3.63185ZM6.91108 4.53978C6.70733 4.54354 6.51317 4.64256 6.37121 4.81511C6.22925 4.98765 6.15109 5.21963 6.15388 5.46013V14.5395C6.15243 14.6598 6.17127 14.7792 6.20928 14.8909C6.24729 15.0025 6.30372 15.1041 6.37529 15.1898C6.44686 15.2755 6.53215 15.3435 6.62619 15.39C6.72023 15.4364 6.82116 15.4603 6.9231 15.4603C7.02504 15.4603 7.12597 15.4364 7.22001 15.39C7.31405 15.3435 7.39934 15.2755 7.47091 15.1898C7.54248 15.1041 7.59891 15.0025 7.63693 14.8909C7.67494 14.7792 7.69377 14.6598 7.69233 14.5395V5.46013C7.69373 5.33866 7.67448 5.21808 7.6357 5.10555C7.59692 4.99303 7.5394 4.89082 7.46655 4.80501C7.3937 4.71919 7.30701 4.65149 7.21159 4.60594C7.11618 4.56038 7.01399 4.53788 6.91108 4.53978V4.53978ZM13.0649 4.53978C12.8611 4.54354 12.667 4.64256 12.525 4.81511C12.383 4.98765 12.3049 5.21963 12.3077 5.46013V14.5395C12.3062 14.6598 12.3251 14.7792 12.3631 14.8909C12.4011 15.0025 12.4575 15.1041 12.5291 15.1898C12.6007 15.2755 12.6859 15.3435 12.78 15.39C12.874 15.4364 12.975 15.4603 13.0769 15.4603C13.1788 15.4603 13.2798 15.4364 13.3738 15.39C13.4679 15.3435 13.5531 15.2755 13.6247 15.1898C13.6963 15.1041 13.7527 15.0025 13.7907 14.8909C13.8287 14.7792 13.8476 14.6598 13.8461 14.5395V5.46013C13.8475 5.33866 13.8283 5.21808 13.7895 5.10555C13.7507 4.99303 13.6932 4.89082 13.6203 4.80501C13.5475 4.71919 13.4608 4.65149 13.3654 4.60594C13.27 4.56038 13.1678 4.53788 13.0649 4.53978V4.53978ZM19.2187 6.35565C19.0149 6.35941 18.8208 6.45843 18.6788 6.63097C18.5368 6.80352 18.4587 7.0355 18.4615 7.276V12.7236C18.46 12.8439 18.4789 12.9634 18.5169 13.075C18.5549 13.1867 18.6113 13.2883 18.6829 13.374C18.7545 13.4596 18.8397 13.5277 18.9338 13.5741C19.0278 13.6205 19.1288 13.6445 19.2307 13.6445C19.3326 13.6445 19.4336 13.6205 19.5276 13.5741C19.6217 13.5277 19.7069 13.4596 19.7785 13.374C19.8501 13.2883 19.9065 13.1867 19.9445 13.075C19.9825 12.9634 20.0014 12.8439 19.9999 12.7236V7.276C20.0013 7.15452 19.9821 7.03395 19.9433 6.92142C19.9045 6.80889 19.847 6.70669 19.7741 6.62087C19.7013 6.53505 19.6146 6.46736 19.5192 6.4218C19.4238 6.37625 19.3216 6.35375 19.2187 6.35565V6.35565ZM9.98798 7.26358C9.78423 7.26734 9.59007 7.36636 9.44811 7.53891C9.30615 7.71146 9.22798 7.94343 9.23077 8.18393V11.8157C9.22933 11.936 9.24816 12.0554 9.28617 12.1671C9.32419 12.2787 9.38062 12.3803 9.45219 12.466C9.52376 12.5517 9.60905 12.6197 9.70309 12.6662C9.79713 12.7126 9.89806 12.7365 10 12.7365C10.1019 12.7365 10.2029 12.7126 10.2969 12.6662C10.391 12.6197 10.4762 12.5517 10.5478 12.466C10.6194 12.3803 10.6758 12.2787 10.7138 12.1671C10.7518 12.0554 10.7707 11.936 10.7692 11.8157V8.18393C10.7706 8.06246 10.7514 7.94189 10.7126 7.82936C10.6738 7.71683 10.6163 7.61463 10.5434 7.52881C10.4706 7.44299 10.3839 7.3753 10.2885 7.32974C10.1931 7.28418 10.0909 7.26168 9.98798 7.26358V7.26358Z" fill="#1A1A1A"/>
</svg>
