<?xml version="1.0" standalone="no"?>
<!DOCTYPE svg PUBLIC "-//W3C//DTD SVG 20010904//EN"
 "http://www.w3.org/TR/2001/REC-SVG-20010904/DTD/svg10.dtd">
<svg version="1.0" xmlns="http://www.w3.org/2000/svg"
 width="96.000000pt" height="96.000000pt" viewBox="0 0 96.000000 96.000000"
 preserveAspectRatio="xMidYMid meet">

<g transform="translate(0.000000,96.000000) scale(0.100000,-0.100000)"
fill="#0077ff" stroke="none">
<path d="M203 739 c-69 -34 -68 -30 -71 -262 -2 -116 -1 -226 3 -245 6 -31 9
-34 33 -29 15 3 45 12 67 21 55 21 105 20 167 -4 66 -25 90 -25 156 0 62 24
112 25 167 4 72 -28 91 -29 98 -2 9 30 9 406 1 448 -11 53 -70 84 -168 88 -70
3 -88 0 -128 -21 l-48 -24 -47 23 c-62 32 -169 33 -230 3z m214 -65 l28 -21 3
-191 2 -190 -47 15 c-47 14 -148 13 -185 -2 -17 -7 -18 6 -18 189 l0 195 28
16 c40 23 153 16 189 -11z m313 11 l30 -16 0 -195 c0 -183 -1 -196 -17 -189
-38 15 -139 16 -185 2 l-48 -15 0 187 c0 204 0 206 60 230 38 15 128 13 160
-4z"/>
</g>
</svg>
