<svg width="20" height="20" viewBox="0 0 20 20" fill="none" xmlns="http://www.w3.org/2000/svg">
<path d="M9.98885 8.70395e-05C9.79985 0.00304152 9.61974 0.0808636 9.48805 0.216473C9.35636 0.352083 9.28385 0.534402 9.28644 0.723414V1.47322C5.13512 1.81844 1.81873 5.13489 1.47352 9.28627H0.723723C0.629167 9.28493 0.53529 9.3024 0.447544 9.33766C0.359799 9.37292 0.279937 9.42527 0.212598 9.49166C0.14526 9.55806 0.0917885 9.63717 0.0552916 9.72441C0.0187946 9.81165 0 9.90527 0 9.99984C0 10.0944 0.0187946 10.188 0.0552916 10.2753C0.0917885 10.3625 0.14526 10.4416 0.212598 10.508C0.279937 10.5744 0.359799 10.6268 0.447544 10.662C0.53529 10.6973 0.629167 10.7147 0.723723 10.7134H1.47352C1.81873 14.8648 5.13512 18.1812 9.28644 18.5265V19.2763C9.2851 19.3708 9.30257 19.4647 9.33783 19.5525C9.37309 19.6402 9.42544 19.7201 9.49183 19.7874C9.55822 19.8547 9.63734 19.9082 9.72458 19.9447C9.81181 19.9812 9.90544 20 10 20C10.0946 20 10.1882 19.9812 10.2754 19.9447C10.3627 19.9082 10.4418 19.8547 10.5082 19.7874C10.5746 19.7201 10.6269 19.6402 10.6622 19.5525C10.6974 19.4647 10.7149 19.3708 10.7136 19.2763V18.5265C14.8649 18.1812 18.1813 14.8648 18.5265 10.7134H19.2763C19.3708 10.7147 19.4647 10.6973 19.5525 10.662C19.6402 10.6268 19.7201 10.5744 19.7874 10.508C19.8547 10.4416 19.9082 10.3625 19.9447 10.2753C19.9812 10.188 20 10.0944 20 9.99984C20 9.90527 19.9812 9.81165 19.9447 9.72441C19.9082 9.63717 19.8547 9.55806 19.7874 9.49166C19.7201 9.42527 19.6402 9.37292 19.5525 9.33766C19.4647 9.3024 19.3708 9.28493 19.2763 9.28627H18.5265C18.1813 5.13489 14.8649 1.81844 10.7136 1.47322V0.723414C10.7149 0.627946 10.697 0.533186 10.661 0.444746C10.6251 0.356305 10.5717 0.275983 10.5041 0.208536C10.4365 0.141088 10.3561 0.0878865 10.2676 0.0520815C10.1791 0.0162765 10.0843 -0.00140405 9.98885 8.70395e-05ZM9.28644 2.89897V3.5777C9.2851 3.67226 9.30257 3.76614 9.33783 3.85388C9.37309 3.94163 9.42544 4.02149 9.49183 4.08883C9.55822 4.15617 9.63734 4.20964 9.72458 4.24614C9.81181 4.28264 9.90544 4.30143 10 4.30143C10.0946 4.30143 10.1882 4.28264 10.2754 4.24614C10.3627 4.20964 10.4418 4.15617 10.5082 4.08883C10.5746 4.02149 10.6269 3.94163 10.6622 3.85388C10.6974 3.76614 10.7149 3.67226 10.7136 3.5777V2.89897C14.0908 3.23266 16.7671 5.90897 17.1008 9.28627H16.422C16.3275 9.28493 16.2336 9.3024 16.1459 9.33766C16.0581 9.37292 15.9783 9.42527 15.9109 9.49166C15.8436 9.55806 15.7901 9.63717 15.7536 9.72441C15.7171 9.81165 15.6983 9.90527 15.6983 9.99984C15.6983 10.0944 15.7171 10.188 15.7536 10.2753C15.7901 10.3625 15.8436 10.4416 15.9109 10.508C15.9783 10.5744 16.0581 10.6268 16.1459 10.662C16.2336 10.6973 16.3275 10.7147 16.422 10.7134H17.1008C16.7671 14.0907 14.0908 16.767 10.7136 17.1007V16.422C10.7149 16.3265 10.697 16.2318 10.661 16.1433C10.6251 16.0549 10.5717 15.9746 10.5041 15.9071C10.4365 15.8397 10.3561 15.7865 10.2676 15.7506C10.1791 15.7148 10.0843 15.6972 9.98885 15.6987C9.79985 15.7016 9.61974 15.7794 9.48805 15.915C9.35636 16.0507 9.28385 16.233 9.28644 16.422V17.1007C5.90919 16.767 3.23293 14.0907 2.89924 10.7134H3.57796C3.67252 10.7147 3.7664 10.6973 3.85414 10.662C3.94189 10.6268 4.02175 10.5744 4.08909 10.508C4.15642 10.4416 4.2099 10.3625 4.24639 10.2753C4.28289 10.188 4.30168 10.0944 4.30168 9.99984C4.30168 9.90527 4.28289 9.81165 4.24639 9.72441C4.2099 9.63717 4.15642 9.55806 4.08909 9.49166C4.02175 9.42527 3.94189 9.37292 3.85414 9.33766C3.7664 9.3024 3.67252 9.28493 3.57796 9.28627H2.89924C3.23293 5.90897 5.90919 3.23266 9.28644 2.89897Z" fill="#1A1A1A"/>
</svg>
