<svg width="20" height="27" viewBox="0 0 20 27" fill="none" xmlns="http://www.w3.org/2000/svg">
<path d="M9.98267 8.52158e-05C9.65303 0.00361792 9.33187 0.10497 9.05992 0.291287C8.78796 0.477604 8.57747 0.740491 8.45514 1.04661L1.799 17.6869C1.79064 17.7077 1.78269 17.7287 1.77517 17.7498H1.12516C0.978153 17.7477 0.832203 17.7749 0.695787 17.8297C0.559372 17.8845 0.435212 17.9659 0.330522 18.0691C0.225833 18.1723 0.142702 18.2953 0.0859606 18.4309C0.0292196 18.5666 0 18.7121 0 18.8591C0 19.0061 0.0292196 19.1517 0.0859606 19.2873C0.142702 19.423 0.225833 19.5459 0.330522 19.6492C0.435212 19.7524 0.559372 19.8338 0.695787 19.8886C0.832203 19.9434 0.978153 19.9706 1.12516 19.9685H2.98419C3.21135 20.0166 3.44605 20.0166 3.67321 19.9685H5.56258C5.70958 19.9706 5.85553 19.9434 5.99195 19.8886C6.12836 19.8338 6.25252 19.7524 6.35721 19.6492C6.4619 19.5459 6.54503 19.423 6.60177 19.2873C6.65851 19.1517 6.68773 19.0061 6.68773 18.8591C6.68773 18.7121 6.65851 18.5666 6.60177 18.4309C6.54503 18.2953 6.4619 18.1723 6.35721 18.0691C6.25252 17.9659 6.12836 17.8845 5.99195 17.8297C5.85553 17.7749 5.70958 17.7477 5.56258 17.7498H5.35674L6.68927 14.4217H13.3107L14.6433 17.7498H14.4374C14.2904 17.7477 14.1445 17.7749 14.0081 17.8297C13.8716 17.8845 13.7475 17.9659 13.6428 18.0691C13.5381 18.1723 13.455 18.2953 13.3982 18.4309C13.3415 18.5666 13.3123 18.7121 13.3123 18.8591C13.3123 19.0061 13.3415 19.1517 13.3982 19.2873C13.455 19.423 13.5381 19.5459 13.6428 19.6492C13.7475 19.7524 13.8716 19.8338 14.0081 19.8886C14.1445 19.9434 14.2904 19.9706 14.4374 19.9685H16.316C16.5459 20.0178 16.7837 20.0178 17.0136 19.9685H18.8748C19.0218 19.9706 19.1678 19.9434 19.3042 19.8886C19.4406 19.8338 19.5648 19.7524 19.6695 19.6492C19.7742 19.5459 19.8573 19.423 19.914 19.2873C19.9708 19.1517 20 19.0061 20 18.8591C20 18.7121 19.9708 18.5666 19.914 18.4309C19.8573 18.2953 19.7742 18.1723 19.6695 18.0691C19.5648 17.9659 19.4406 17.8845 19.3042 17.8297C19.1678 17.7749 19.0218 17.7477 18.8748 17.7498H18.2248C18.2173 17.7287 18.2094 17.7077 18.201 17.6869L11.5449 1.04661C11.4203 0.735007 11.2045 0.468331 10.9257 0.281571C10.6469 0.0948102 10.3182 -0.00330979 9.98267 8.52158e-05ZM10 6.14488L12.4224 12.203H7.57762L10 6.14488ZM0.0158002 23.2966V26.6246H19.9842V23.2966H0.0158002Z" fill="black"/>
</svg>
