<?xml version="1.0" standalone="no"?>
<!DOCTYPE svg PUBLIC "-//W3C//DTD SVG 20010904//EN"
 "http://www.w3.org/TR/2001/REC-SVG-20010904/DTD/svg10.dtd">
<svg version="1.0" xmlns="http://www.w3.org/2000/svg"
 width="96.000000pt" height="96.000000pt" viewBox="0 0 96.000000 96.000000"
 preserveAspectRatio="xMidYMid meet">

<g transform="translate(0.000000,96.000000) scale(0.100000,-0.100000)"
fill="#0077ff" stroke="none">
<path d="M244 773 c-12 -2 -30 -13 -40 -25 -17 -18 -19 -41 -19 -269 0 -245 0
-249 23 -271 22 -23 26 -23 272 -23 246 0 250 0 272 23 23 22 23 26 23 272 0
246 0 250 -23 272 -22 23 -27 23 -255 24 -127 1 -242 0 -253 -3z m464 -65 c8
-8 12 -61 12 -171 l0 -159 -56 51 c-34 31 -65 51 -79 51 -15 0 -46 -21 -84
-56 l-61 -56 -31 26 c-17 14 -39 26 -48 26 -10 0 -41 -18 -70 -41 l-51 -41 0
179 c0 126 4 183 12 191 17 17 439 17 456 0z"/>
<path d="M337 612 c-35 -38 -9 -102 40 -102 47 0 71 71 35 103 -24 22 -55 21
-75 -1z"/>
</g>
</svg>
