<svg width="22" height="20" viewBox="0 0 22 20" fill="none" xmlns="http://www.w3.org/2000/svg">
<path d="M3.54799 0C3.33961 0 3.13976 0.0795615 2.99241 0.221182C2.84506 0.362802 2.76228 0.554881 2.76228 0.755162C2.76228 0.955444 2.84506 1.14752 2.99241 1.28914C3.13976 1.43076 3.33961 1.51032 3.54799 1.51032C3.75638 1.51032 3.95622 1.43076 4.10357 1.28914C4.25092 1.14752 4.33371 0.955444 4.33371 0.755162C4.33371 0.554881 4.25092 0.362802 4.10357 0.221182C3.95622 0.0795615 3.75638 0 3.54799 0V0ZM18.452 0C18.2436 0 18.0438 0.0795615 17.8964 0.221182C17.7491 0.362802 17.6663 0.554881 17.6663 0.755162C17.6663 0.955444 17.7491 1.14752 17.8964 1.28914C18.0438 1.43076 18.2436 1.51032 18.452 1.51032C18.6604 1.51032 18.8602 1.43076 19.0076 1.28914C19.1549 1.14752 19.2377 0.955444 19.2377 0.755162C19.2377 0.554881 19.1549 0.362802 19.0076 0.221182C18.8602 0.0795615 18.6604 0 18.452 0V0ZM11 0.365782C7.10402 0.365782 3.92857 3.41776 3.92857 7.16224C3.92857 9.67945 5.24778 11.5621 6.46219 12.9956C7.0694 13.7123 7.65582 14.331 8.05971 14.8555C8.4636 15.38 8.64286 15.7854 8.64286 16.0265V16.9794V17.7345C8.64286 18.569 9.34607 19.2448 10.2143 19.2448C10.2143 19.4451 10.2971 19.6372 10.4444 19.7788C10.5918 19.9204 10.7916 20 11 20C11.2084 20 11.4082 19.9204 11.5556 19.7788C11.7029 19.6372 11.7857 19.4451 11.7857 19.2448C12.6539 19.2448 13.3571 18.569 13.3571 17.7345V16.2242V16.056C13.3689 15.7694 13.5717 15.3405 13.9848 14.8053C14.3979 14.2701 14.9864 13.6495 15.5915 12.9351C16.8017 11.5063 18.1012 9.64327 18.0714 7.15339C18.0266 3.41951 14.896 0.365782 11 0.365782ZM11 1.87611C14.0466 1.87611 16.4647 4.23236 16.5 7.17109C16.5237 9.15177 15.5111 10.6372 14.373 11.9808C13.804 12.6526 13.2093 13.2741 12.7218 13.9056C12.2344 14.5371 11.8184 15.1997 11.7857 15.9971C11.7855 16.0069 11.7855 16.0167 11.7857 16.0265V16.2242H10.2143V16.0265C10.2143 15.2338 9.80425 14.5806 9.32422 13.9572C8.84418 13.3338 8.25203 12.7157 7.68066 12.0413C6.53793 10.6924 5.5 9.17601 5.5 7.16224C5.5 4.23411 7.95341 1.87611 11 1.87611ZM0.785714 6.40708C0.57733 6.40708 0.37748 6.48664 0.23013 6.62826C0.0827803 6.76988 0 6.96196 0 7.16224C0 7.36252 0.0827803 7.5546 0.23013 7.69622C0.37748 7.83784 0.57733 7.9174 0.785714 7.9174C0.994099 7.9174 1.19395 7.83784 1.3413 7.69622C1.48865 7.5546 1.57143 7.36252 1.57143 7.16224C1.57143 6.96196 1.48865 6.76988 1.3413 6.62826C1.19395 6.48664 0.994099 6.40708 0.785714 6.40708ZM21.2143 6.40708C21.0059 6.40708 20.8061 6.48664 20.6587 6.62826C20.5114 6.76988 20.4286 6.96196 20.4286 7.16224C20.4286 7.36252 20.5114 7.5546 20.6587 7.69622C20.8061 7.83784 21.0059 7.9174 21.2143 7.9174C21.4227 7.9174 21.6225 7.83784 21.7699 7.69622C21.9172 7.5546 22 7.36252 22 7.16224C22 6.96196 21.9172 6.76988 21.7699 6.62826C21.6225 6.48664 21.4227 6.40708 21.2143 6.40708ZM3.54799 12.8142C3.33961 12.8142 3.13976 12.8937 2.99241 13.0353C2.84506 13.177 2.76228 13.369 2.76228 13.5693C2.76228 13.7696 2.84506 13.9617 2.99241 14.1033C3.13976 14.2449 3.33961 14.3245 3.54799 14.3245C3.75638 14.3245 3.95622 14.2449 4.10357 14.1033C4.25092 13.9617 4.33371 13.7696 4.33371 13.5693C4.33371 13.369 4.25092 13.177 4.10357 13.0353C3.95622 12.8937 3.75638 12.8142 3.54799 12.8142ZM18.452 12.8142C18.2436 12.8142 18.0438 12.8937 17.8964 13.0353C17.7491 13.177 17.6663 13.369 17.6663 13.5693C17.6663 13.7696 17.7491 13.9617 17.8964 14.1033C18.0438 14.2449 18.2436 14.3245 18.452 14.3245C18.6604 14.3245 18.8602 14.2449 19.0076 14.1033C19.1549 13.9617 19.2377 13.7696 19.2377 13.5693C19.2377 13.369 19.1549 13.177 19.0076 13.0353C18.8602 12.8937 18.6604 12.8142 18.452 12.8142Z" fill="#1A1A1A"/>
</svg>
