<svg width="20" height="20" viewBox="0 0 20 20" fill="none" xmlns="http://www.w3.org/2000/svg">
<path d="M8.3283 0C3.73857 0 0 3.73857 0 8.3283C0 12.918 3.73857 16.6566 8.3283 16.6566C10.3242 16.6566 12.1571 15.9479 13.5937 14.7714L18.5663 19.7439C18.643 19.8239 18.7349 19.8877 18.8366 19.9316C18.9383 19.9756 19.0478 19.9988 19.1586 20C19.2694 20.0011 19.3793 19.9801 19.4819 19.9382C19.5845 19.8963 19.6777 19.8344 19.756 19.756C19.8344 19.6777 19.8963 19.5845 19.9382 19.4819C19.9801 19.3793 20.0011 19.2694 20 19.1586C19.9988 19.0478 19.9756 18.9383 19.9316 18.8366C19.8877 18.7349 19.8239 18.643 19.7439 18.5663L14.7714 13.5937C15.9479 12.1571 16.6566 10.3242 16.6566 8.3283C16.6566 3.73857 12.918 0 8.3283 0ZM8.3283 1.66566C12.0178 1.66566 14.9909 4.63876 14.9909 8.3283C14.9909 12.0178 12.0178 14.9909 8.3283 14.9909C4.63876 14.9909 1.66566 12.0178 1.66566 8.3283C1.66566 4.63876 4.63876 1.66566 8.3283 1.66566ZM8.31529 4.15277C8.0947 4.15621 7.88448 4.24704 7.73078 4.40532C7.57708 4.56359 7.49245 4.77638 7.49547 4.99698V7.49547H4.99698C4.88662 7.49391 4.77705 7.5143 4.67464 7.55545C4.57223 7.59661 4.47902 7.6577 4.40042 7.7352C4.32183 7.81269 4.25942 7.90502 4.21682 8.00684C4.17423 8.10866 4.15229 8.21793 4.15229 8.3283C4.15229 8.43867 4.17423 8.54795 4.21682 8.64977C4.25942 8.75158 4.32183 8.84392 4.40042 8.92141C4.47902 8.9989 4.57223 9.06 4.67464 9.10115C4.77705 9.14231 4.88662 9.16269 4.99698 9.16113H7.49547V11.6596C7.49391 11.77 7.5143 11.8796 7.55545 11.982C7.59661 12.0844 7.6577 12.1776 7.7352 12.2562C7.81269 12.3348 7.90502 12.3972 8.00684 12.4398C8.10866 12.4824 8.21793 12.5043 8.3283 12.5043C8.43867 12.5043 8.54795 12.4824 8.64977 12.4398C8.75158 12.3972 8.84392 12.3348 8.92141 12.2562C8.9989 12.1776 9.06 12.0844 9.10115 11.982C9.14231 11.8796 9.16269 11.77 9.16113 11.6596V9.16113H11.6596C11.77 9.16269 11.8796 9.14231 11.982 9.10115C12.0844 9.06 12.1776 8.9989 12.2562 8.92141C12.3348 8.84392 12.3972 8.75158 12.4398 8.64977C12.4824 8.54795 12.5043 8.43867 12.5043 8.3283C12.5043 8.21793 12.4824 8.10866 12.4398 8.00684C12.3972 7.90502 12.3348 7.81269 12.2562 7.7352C12.1776 7.6577 12.0844 7.59661 11.982 7.55545C11.8796 7.5143 11.77 7.49391 11.6596 7.49547H9.16113V4.99698C9.16266 4.88556 9.14181 4.77496 9.09982 4.67174C9.05784 4.56852 8.99556 4.47477 8.91669 4.39605C8.83782 4.31733 8.74395 4.25524 8.64065 4.21345C8.53735 4.17166 8.42671 4.15103 8.31529 4.15277Z" fill="black"/>
</svg>
