<?xml version="1.0" standalone="no"?>
<!DOCTYPE svg PUBLIC "-//W3C//DTD SVG 20010904//EN"
 "http://www.w3.org/TR/2001/REC-SVG-20010904/DTD/svg10.dtd">
<svg version="1.0" xmlns="http://www.w3.org/2000/svg"
 width="96.000000pt" height="96.000000pt" viewBox="0 0 96.000000 96.000000"
 preserveAspectRatio="xMidYMid meet">

<g transform="translate(0.000000,96.000000) scale(0.100000,-0.100000)"
fill="#0077ff" stroke="none">
<path d="M295 755 c-20 -19 -25 -34 -25 -75 l0 -50 -35 0 c-25 0 -44 -8 -60
-25 -25 -24 -25 -27 -25 -195 l0 -172 29 -29 29 -29 272 0 272 0 29 29 29 29
0 247 0 246 -25 24 -24 25 -221 0 -221 0 -24 -25z m453 -272 l-3 -238 -207 -3
-208 -2 0 240 0 240 210 0 210 0 -2 -237z m-480 -75 l-3 -163 -25 0 -25 0 -3
163 -2 162 30 0 30 0 -2 -162z"/>
<path d="M384 645 c-4 -8 -4 -22 0 -30 5 -13 29 -15 158 -13 l153 3 0 25 0 25
-153 3 c-129 2 -153 0 -158 -13z"/>
<path d="M380 526 c0 -31 19 -36 160 -36 141 0 160 5 160 36 l0 24 -160 0
-160 0 0 -24z"/>
<path d="M379 429 c-12 -23 -8 -123 5 -136 4 -5 34 -8 66 -8 32 0 62 3 66 8
13 13 17 113 5 136 -10 18 -21 21 -71 21 -50 0 -61 -3 -71 -21z"/>
<path d="M574 436 c-14 -36 3 -47 63 -44 54 3 58 5 58 28 0 23 -4 25 -58 28
-44 2 -59 0 -63 -12z"/>
<path d="M573 324 c-8 -21 22 -44 56 -44 50 0 71 11 71 36 0 23 -3 24 -60 24
-47 0 -62 -4 -67 -16z"/>
</g>
</svg>
