<?xml version="1.0" standalone="no"?>
<!DOCTYPE svg PUBLIC "-//W3C//DTD SVG 20010904//EN"
 "http://www.w3.org/TR/2001/REC-SVG-20010904/DTD/svg10.dtd">
<svg version="1.0" xmlns="http://www.w3.org/2000/svg"
 width="96.000000pt" height="96.000000pt" viewBox="0 0 96.000000 96.000000"
 preserveAspectRatio="xMidYMid meet">

<g transform="translate(0.000000,96.000000) scale(0.100000,-0.100000)"
fill="#0077ff" stroke="none">
<path d="M372 803 c-59 -21 -135 -99 -156 -159 -21 -61 -20 -152 1 -206 39
-103 218 -318 263 -318 45 0 224 215 263 318 21 54 22 145 1 206 -22 63 -97
138 -160 160 -59 20 -155 19 -212 -1z m206 -62 c79 -41 122 -111 122 -199 0
-83 -49 -177 -147 -280 l-73 -77 -73 77 c-98 103 -147 197 -147 279 0 89 43
159 125 202 43 23 146 22 193 -2z"/>
<path d="M427 592 c-23 -25 -22 -85 1 -105 41 -38 122 -11 122 40 0 16 -5 19
-23 16 -28 -6 -51 19 -44 47 4 16 0 20 -17 20 -13 0 -30 -8 -39 -18z"/>
</g>
</svg>
