<svg width="20" height="20" viewBox="0 0 20 20" fill="none" xmlns="http://www.w3.org/2000/svg">
<path d="M10.787 0C10.6445 0.000199525 10.5048 0.0381753 10.3828 0.109878C10.2607 0.181581 10.1608 0.284324 10.0938 0.407151H10.0922L7.01506 5.99459L1.11282 0.225361L0 1.3131L18.8872 19.7746L20 18.6869L13.7642 12.5916L15.435 9.55679L15.4319 9.55228C15.4789 9.45369 15.5088 9.34665 15.5088 9.23077C15.5088 8.80615 15.1562 8.46154 14.7218 8.46154H11.5739V0.769231C11.5739 0.565218 11.491 0.369561 11.3434 0.225302C11.1959 0.0810437 10.9957 0 10.787 0V0ZM5.46726 8.80409L4.60344 10.3726L4.60498 10.3741C4.53115 10.4933 4.49184 10.6299 4.49124 10.7692C4.49124 10.9732 4.57415 11.1689 4.72174 11.3132C4.86932 11.4574 5.06949 11.5385 5.2782 11.5385H8.26468L5.46726 8.80409ZM8.42607 11.6962V19.2308C8.42607 19.4348 8.50898 19.6304 8.65657 19.7747C8.80415 19.919 9.00432 20 9.21303 20C9.35819 19.9999 9.50048 19.9605 9.62418 19.8863C9.74787 19.812 9.84815 19.7058 9.91393 19.5793H9.91546L12.2164 15.4011L8.42607 11.6962Z" fill="#1A1A1A"/>
</svg>
