<?xml version="1.0" standalone="no"?>
<!DOCTYPE svg PUBLIC "-//W3C//DTD SVG 20010904//EN"
 "http://www.w3.org/TR/2001/REC-SVG-20010904/DTD/svg10.dtd">
<svg version="1.0" xmlns="http://www.w3.org/2000/svg"
 width="96.000000pt" height="96.000000pt" viewBox="0 0 96.000000 96.000000"
 preserveAspectRatio="xMidYMid meet">

<g transform="translate(0.000000,96.000000) scale(0.100000,-0.100000)"
fill="#0077ff" stroke="none">
<path d="M303 668 c-175 -176 -192 -201 -178 -255 9 -37 251 -279 288 -288 54
-14 79 3 255 178 l172 173 0 97 c0 65 -5 107 -14 125 -17 31 -101 115 -133
131 -12 6 -66 11 -120 11 l-97 0 -173 -172z m419 55 l58 -57 0 -85 0 -85 -153
-153 c-83 -85 -163 -157 -176 -160 -19 -5 -42 13 -147 118 -73 73 -124 132
-124 143 0 11 64 83 158 178 l157 158 85 0 84 0 58 -57z"/>
<path d="M594 656 c-3 -8 -4 -25 -2 -38 2 -19 9 -23 38 -23 33 0 35 2 35 35 0
32 -3 35 -33 38 -21 2 -34 -2 -38 -12z"/>
</g>
</svg>
