<svg width="20" height="20" viewBox="0 0 20 20" fill="none" xmlns="http://www.w3.org/2000/svg">
<path d="M0.911695 0.000378354C0.781837 0.00040679 0.653495 0.0282927 0.53533 0.082154C0.417165 0.136015 0.311925 0.214599 0.226711 0.312603C0.141497 0.410608 0.0782909 0.525753 0.0413581 0.650269C0.00442526 0.774785 -0.00537557 0.905776 0.0126173 1.0344V6.36593C0.0109157 6.48626 0.0331434 6.60573 0.0780083 6.7174C0.122873 6.82907 0.189481 6.9307 0.27396 7.0164C0.358439 7.10209 0.459105 7.17014 0.570108 7.21659C0.68111 7.26304 0.800236 7.28696 0.920561 7.28696C1.04089 7.28696 1.16001 7.26304 1.27101 7.21659C1.38202 7.17014 1.48268 7.10209 1.56716 7.0164C1.65164 6.9307 1.71825 6.82907 1.76311 6.7174C1.80798 6.60573 1.83021 6.48626 1.8285 6.36593V3.10955L6.18025 7.46203C6.26391 7.54918 6.36412 7.61876 6.47501 7.6667C6.5859 7.71463 6.70523 7.73996 6.82602 7.74119C6.94682 7.74242 7.06664 7.71953 7.17848 7.67386C7.29032 7.62819 7.39192 7.56066 7.47734 7.47523C7.56276 7.3898 7.63028 7.28818 7.67594 7.17632C7.7216 7.06446 7.74448 6.94462 7.74325 6.8238C7.74202 6.70299 7.7167 6.58363 7.66878 6.47273C7.62085 6.36182 7.55128 6.2616 7.46414 6.17792L3.11239 1.82544H6.36822C6.48854 1.82714 6.60799 1.80491 6.71964 1.76004C6.83129 1.71517 6.9329 1.64855 7.01859 1.56405C7.10427 1.47956 7.17231 1.37888 7.21875 1.26786C7.26518 1.15683 7.2891 1.03769 7.2891 0.917343C7.2891 0.796998 7.26518 0.677852 7.21875 0.566831C7.17231 0.45581 7.10427 0.355126 7.01859 0.270633C6.9329 0.18614 6.83129 0.119521 6.71964 0.0746486C6.60799 0.0297761 6.48854 0.00754467 6.36822 0.00924649H1.02696C0.988766 0.00384469 0.950266 0.000882632 0.911695 0.000378354ZM19.0617 0.000378354C19.0279 0.00144778 18.9941 0.00440846 18.9606 0.00924649H13.6318C13.5115 0.00754467 13.392 0.0297761 13.2804 0.0746486C13.1687 0.119521 13.0671 0.18614 12.9814 0.270633C12.8957 0.355126 12.8277 0.45581 12.7813 0.566831C12.7348 0.677852 12.7109 0.796998 12.7109 0.917343C12.7109 1.03769 12.7348 1.15683 12.7813 1.26786C12.8277 1.37888 12.8957 1.47956 12.9814 1.56405C13.0671 1.64855 13.1687 1.71517 13.2804 1.76004C13.392 1.80491 13.5115 1.82714 13.6318 1.82544H16.8876L12.5359 6.17792C12.4487 6.2616 12.3791 6.36182 12.3312 6.47273C12.2833 6.58363 12.258 6.70299 12.2567 6.8238C12.2555 6.94462 12.2784 7.06446 12.3241 7.17632C12.3697 7.28818 12.4372 7.3898 12.5227 7.47523C12.6081 7.56066 12.7097 7.62819 12.8215 7.67386C12.9334 7.71953 13.0532 7.74242 13.174 7.74119C13.2948 7.73996 13.4141 7.71463 13.525 7.6667C13.6359 7.61876 13.7361 7.54918 13.8197 7.46203L18.1715 3.10955V6.36593C18.1698 6.48626 18.192 6.60573 18.2369 6.7174C18.2818 6.82907 18.3484 6.9307 18.4328 7.0164C18.5173 7.10209 18.618 7.17014 18.729 7.21659C18.84 7.26304 18.9591 7.28696 19.0794 7.28696C19.1998 7.28696 19.3189 7.26304 19.4299 7.21659C19.5409 7.17014 19.6416 7.10209 19.726 7.0164C19.8105 6.9307 19.8771 6.82907 19.922 6.7174C19.9669 6.60573 19.9891 6.48626 19.9874 6.36593V1.03263C20.0055 0.901886 19.9948 0.768773 19.9562 0.642556C19.9176 0.51634 19.852 0.400055 19.7639 0.301798C19.6758 0.203542 19.5673 0.125674 19.446 0.0736184C19.3248 0.0215625 19.1936 -0.00343095 19.0617 0.000378354ZM6.80446 12.2597C6.56858 12.2667 6.3447 12.3653 6.18025 12.5346L1.8285 16.8871V13.6307C1.83017 13.5092 1.80744 13.3886 1.76166 13.2761C1.71589 13.1635 1.648 13.0613 1.56201 12.9755C1.47603 12.8896 1.3737 12.8219 1.26108 12.7764C1.14846 12.7308 1.02784 12.7083 0.906375 12.7102C0.665883 12.7139 0.436707 12.813 0.269145 12.9856C0.101582 13.1581 0.00932387 13.3902 0.0126173 13.6307V18.9409C-0.0114382 19.0838 -0.000994791 19.2303 0.0430756 19.3682C0.0871459 19.5062 0.163565 19.6316 0.265957 19.734C0.368349 19.8364 0.493744 19.9128 0.631679 19.9569C0.769614 20.001 0.916089 20.0114 1.05888 19.9874H6.36822C6.48854 19.9891 6.60799 19.9669 6.71964 19.922C6.83129 19.8771 6.9329 19.8105 7.01859 19.726C7.10427 19.6415 7.17231 19.5408 7.21875 19.4298C7.26518 19.3188 7.2891 19.1996 7.2891 19.0793C7.2891 18.9589 7.26518 18.8398 7.21875 18.7288C7.17231 18.6177 7.10427 18.5171 7.01859 18.4326C6.9329 18.3481 6.83129 18.2815 6.71964 18.2366C6.60799 18.1917 6.48854 18.1695 6.36822 18.1712H3.11239L7.46414 13.8187C7.59534 13.6912 7.68495 13.5269 7.72123 13.3476C7.75752 13.1682 7.73877 12.9821 7.66746 12.8135C7.59615 12.645 7.4756 12.5019 7.3216 12.4031C7.16761 12.3043 6.98735 12.2543 6.80446 12.2597ZM13.1689 12.2597C12.9883 12.2597 12.8118 12.3137 12.662 12.4146C12.5122 12.5155 12.3958 12.6588 12.3279 12.8261C12.2599 12.9935 12.2434 13.1773 12.2804 13.3542C12.3175 13.531 12.4064 13.6927 12.5359 13.8187L16.8876 18.1712H13.6318C13.5115 18.1695 13.392 18.1917 13.2804 18.2366C13.1687 18.2815 13.0671 18.3481 12.9814 18.4326C12.8957 18.5171 12.8277 18.6177 12.7813 18.7288C12.7348 18.8398 12.7109 18.9589 12.7109 19.0793C12.7109 19.1996 12.7348 19.3188 12.7813 19.4298C12.8277 19.5408 12.8957 19.6415 12.9814 19.726C13.0671 19.8105 13.1687 19.8771 13.2804 19.922C13.392 19.9669 13.5115 19.9891 13.6318 19.9874H18.9411C19.0839 20.0114 19.2304 20.001 19.3683 19.9569C19.5063 19.9128 19.6317 19.8364 19.734 19.734C19.8364 19.6316 19.9129 19.5062 19.9569 19.3682C20.001 19.2303 20.0114 19.0838 19.9874 18.9409V13.6307C19.989 13.5092 19.9663 13.3886 19.9205 13.2761C19.8748 13.1635 19.8069 13.0613 19.7209 12.9755C19.6349 12.8896 19.5326 12.8219 19.42 12.7764C19.3073 12.7308 19.1867 12.7083 19.0653 12.7102C18.8248 12.7139 18.5956 12.813 18.428 12.9856C18.2605 13.1581 18.1682 13.3902 18.1715 13.6307V16.8871L13.8197 12.5346C13.7351 12.4476 13.634 12.3785 13.5222 12.3312C13.4104 12.284 13.2903 12.2597 13.1689 12.2597Z" fill="black"/>
</svg>
