<?xml version="1.0" standalone="no"?>
<!DOCTYPE svg PUBLIC "-//W3C//DTD SVG 20010904//EN"
 "http://www.w3.org/TR/2001/REC-SVG-20010904/DTD/svg10.dtd">
<svg version="1.0" xmlns="http://www.w3.org/2000/svg"
 width="24.000000pt" height="24.000000pt" viewBox="0 0 24.000000 24.000000"
 preserveAspectRatio="xMidYMid meet">

<g transform="translate(0.000000,24.000000) scale(0.100000,-0.100000)"
fill="#0077ff" stroke="none">
<path d="M76 197 c2 -7 -7 -24 -20 -36 -14 -13 -23 -28 -20 -33 4 -5 19 2 34
17 16 15 33 24 39 21 7 -5 11 3 11 18 0 21 -5 26 -25 26 -16 0 -23 -5 -19 -13z"/>
<path d="M162 198 c-18 -18 -15 -36 8 -50 11 -7 20 -17 20 -21 0 -5 -9 -5 -20
-2 -24 7 -26 -7 -5 -25 12 -10 18 -10 30 0 21 17 19 37 -5 52 -11 7 -20 17
-20 21 0 5 9 5 20 2 22 -7 26 5 8 23 -15 15 -21 15 -36 0z"/>
<path d="M110 70 c0 -22 5 -40 10 -40 6 0 10 18 10 40 0 22 -4 40 -10 40 -5 0
-10 -18 -10 -40z"/>
<path d="M70 60 c0 -16 5 -30 10 -30 6 0 10 14 10 30 0 17 -4 30 -10 30 -5 0
-10 -13 -10 -30z"/>
<path d="M30 50 c0 -11 5 -20 10 -20 6 0 10 9 10 20 0 11 -4 20 -10 20 -5 0
-10 -9 -10 -20z"/>
<path d="M150 50 c0 -11 5 -20 10 -20 6 0 10 9 10 20 0 11 -4 20 -10 20 -5 0
-10 -9 -10 -20z"/>
<path d="M190 50 c0 -11 5 -20 10 -20 6 0 10 9 10 20 0 11 -4 20 -10 20 -5 0
-10 -9 -10 -20z"/>
</g>
</svg>
