<?xml version="1.0" standalone="no"?>
<!DOCTYPE svg PUBLIC "-//W3C//DTD SVG 20010904//EN"
 "http://www.w3.org/TR/2001/REC-SVG-20010904/DTD/svg10.dtd">
<svg version="1.0" xmlns="http://www.w3.org/2000/svg"
 width="96.000000pt" height="96.000000pt" viewBox="0 0 96.000000 96.000000"
 preserveAspectRatio="xMidYMid meet">

<g transform="translate(0.000000,96.000000) scale(0.100000,-0.100000)"
fill="#0077ff" stroke="none">
<path d="M715 798 c-11 -6 -52 -42 -92 -80 -67 -65 -73 -68 -110 -64 -21 3
-101 8 -178 11 -133 5 -142 5 -163 -15 -12 -12 -20 -25 -18 -29 3 -4 62 -29
131 -56 69 -26 125 -51 125 -55 0 -4 -14 -25 -31 -46 -17 -22 -37 -48 -45 -59
-14 -19 -15 -19 -84 -1 -125 32 -121 12 24 -133 80 -80 119 -112 130 -108 20
8 20 19 1 81 -8 27 -15 55 -15 62 0 13 105 104 120 104 4 0 29 -56 55 -125 27
-69 52 -128 56 -131 5 -3 18 5 29 16 20 20 21 28 15 163 -3 78 -8 159 -11 180
-4 37 -1 43 64 110 38 40 74 82 81 94 14 28 14 66 -1 81 -15 15 -56 15 -83 0z"/>
</g>
</svg>
