<?xml version="1.0" standalone="no"?>
<!DOCTYPE svg PUBLIC "-//W3C//DTD SVG 20010904//EN"
 "http://www.w3.org/TR/2001/REC-SVG-20010904/DTD/svg10.dtd">
<svg version="1.0" xmlns="http://www.w3.org/2000/svg"
 width="96.000000pt" height="96.000000pt" viewBox="0 0 96.000000 96.000000"
 preserveAspectRatio="xMidYMid meet">

<g transform="translate(0.000000,96.000000) scale(0.100000,-0.100000)"
fill="#0077ff" stroke="none">
<path d="M244 773 c-12 -2 -30 -13 -40 -25 -17 -18 -19 -41 -19 -269 0 -245 0
-249 23 -271 22 -23 26 -23 272 -23 246 0 250 0 272 23 23 22 23 26 23 272 0
246 0 250 -23 272 -22 23 -27 23 -255 24 -127 1 -242 0 -253 -3z m464 -65 c17
-17 17 -439 0 -456 -17 -17 -439 -17 -456 0 -17 17 -17 439 0 456 17 17 439
17 456 0z"/>
<path d="M372 628 c-17 -17 -17 -279 0 -296 23 -23 55 -11 141 54 72 55 87 72
87 94 0 22 -15 39 -87 94 -86 65 -118 77 -141 54z"/>
</g>
</svg>
