<svg width="20" height="20" viewBox="0 0 20 20" fill="none" xmlns="http://www.w3.org/2000/svg">
<path d="M10 0C4.05447 0 0.213992 9.21118 0.144531 9.37891C0.0510356 9.55556 0.000101082 9.77444 0 10C0.000118269 10.1935 0.03766 10.3828 0.108073 10.5449C0.108936 10.5469 0.109804 10.5488 0.110677 10.5508C0.12214 10.5863 3.34589 20 10 20C16.6259 20 19.8449 10.6787 19.8841 10.5645C19.8868 10.558 19.8894 10.5515 19.8919 10.5449C19.9623 10.3828 19.9999 10.1935 20 10C20 9.77535 19.9495 9.55725 19.8568 9.38086C19.8563 9.38021 19.8559 9.37956 19.8555 9.37891C19.786 9.21118 15.9455 0 10 0ZM10 3C12.5773 3 14.6667 6.134 14.6667 10C14.6667 13.866 12.5773 17 10 17C7.42267 17 5.33333 13.866 5.33333 10C5.33333 6.134 7.42267 3 10 3ZM10 7C9.46957 7 8.96086 7.31607 8.58579 7.87868C8.21071 8.44129 8 9.20435 8 10C8 10.7956 8.21071 11.5587 8.58579 12.1213C8.96086 12.6839 9.46957 13 10 13C10.5304 13 11.0391 12.6839 11.4142 12.1213C11.7893 11.5587 12 10.7956 12 10C12 9.20435 11.7893 8.44129 11.4142 7.87868C11.0391 7.31607 10.5304 7 10 7V7Z" fill="#1A1A1A"/>
</svg>
