<svg width="72" height="73" viewBox="0 0 72 73" fill="none" xmlns="http://www.w3.org/2000/svg">
<circle cx="36" cy="36.4833" r="36" fill="#4285F4"/>
<path d="M36 23.15C35.0833 23.15 34.2989 22.8233 33.6467 22.17C32.9933 21.5178 32.6667 20.7333 32.6667 19.8167C32.6667 18.9 32.9933 18.115 33.6467 17.4617C34.2989 16.8094 35.0833 16.4833 36 16.4833C36.9167 16.4833 37.7017 16.8094 38.355 17.4617C39.0072 18.115 39.3333 18.9 39.3333 19.8167C39.3333 20.7333 39.0072 21.5178 38.355 22.17C37.7017 22.8233 36.9167 23.15 36 23.15ZM31 48.15V28.15C29.3333 28.0111 27.6389 27.8028 25.9167 27.525C24.1944 27.2472 22.5556 26.9 21 26.4833L21.8333 23.15C24 23.7333 26.3056 24.1567 28.75 24.42C31.1944 24.6844 33.6111 24.8167 36 24.8167C38.3889 24.8167 40.8056 24.6844 43.25 24.42C45.6944 24.1567 48 23.7333 50.1667 23.15L51 26.4833C49.4444 26.9 47.8056 27.2472 46.0833 27.525C44.3611 27.8028 42.6667 28.0111 41 28.15V48.15H37.6667V38.15H34.3333V48.15H31ZM29.3333 56.4833C28.8611 56.4833 28.465 56.3233 28.145 56.0033C27.8261 55.6844 27.6667 55.2889 27.6667 54.8167C27.6667 54.3444 27.8261 53.9489 28.145 53.63C28.465 53.31 28.8611 53.15 29.3333 53.15C29.8056 53.15 30.2017 53.31 30.5217 53.63C30.8406 53.9489 31 54.3444 31 54.8167C31 55.2889 30.8406 55.6844 30.5217 56.0033C30.2017 56.3233 29.8056 56.4833 29.3333 56.4833ZM36 56.4833C35.5278 56.4833 35.1322 56.3233 34.8133 56.0033C34.4933 55.6844 34.3333 55.2889 34.3333 54.8167C34.3333 54.3444 34.4933 53.9489 34.8133 53.63C35.1322 53.31 35.5278 53.15 36 53.15C36.4722 53.15 36.8683 53.31 37.1883 53.63C37.5072 53.9489 37.6667 54.3444 37.6667 54.8167C37.6667 55.2889 37.5072 55.6844 37.1883 56.0033C36.8683 56.3233 36.4722 56.4833 36 56.4833ZM42.6667 56.4833C42.1944 56.4833 41.7989 56.3233 41.48 56.0033C41.16 55.6844 41 55.2889 41 54.8167C41 54.3444 41.16 53.9489 41.48 53.63C41.7989 53.31 42.1944 53.15 42.6667 53.15C43.1389 53.15 43.5344 53.31 43.8533 53.63C44.1733 53.9489 44.3333 54.3444 44.3333 54.8167C44.3333 55.2889 44.1733 55.6844 43.8533 56.0033C43.5344 56.3233 43.1389 56.4833 42.6667 56.4833Z" fill="white"/>
<circle cx="36" cy="36.4833" r="33.5" stroke="#F4B400" stroke-width="5"/>
<mask id="path-4-inside-1_20_3042" fill="white">
<path d="M3.21151 21.6201C1.21126 26.0327 0.122248 30.8037 0.00971307 35.6471C-0.102822 40.4906 0.763434 45.307 2.55659 49.8077C4.34974 54.3084 7.0329 58.4009 10.4453 61.84C13.8577 65.279 17.9292 67.994 22.4159 69.8221L24.3553 65.0623C20.5092 63.4952 17.019 61.1679 14.0937 58.2198C11.1685 55.2717 8.86843 51.7635 7.33128 47.9054C5.79414 44.0472 5.05155 39.9185 5.14802 35.7665C5.24449 31.6145 6.17802 27.5248 7.8927 23.7421L3.21151 21.6201Z"/>
</mask>
<path d="M3.21151 21.6201C1.21126 26.0327 0.122248 30.8037 0.00971307 35.6471C-0.102822 40.4906 0.763434 45.307 2.55659 49.8077C4.34974 54.3084 7.0329 58.4009 10.4453 61.84C13.8577 65.279 17.9292 67.994 22.4159 69.8221L24.3553 65.0623C20.5092 63.4952 17.019 61.1679 14.0937 58.2198C11.1685 55.2717 8.86843 51.7635 7.33128 47.9054C5.79414 44.0472 5.05155 39.9185 5.14802 35.7665C5.24449 31.6145 6.17802 27.5248 7.8927 23.7421L3.21151 21.6201Z" stroke="#0F9D58" stroke-width="8" mask="url(#path-4-inside-1_20_3042)"/>
<mask id="path-5-inside-2_20_3042" fill="white">
<path d="M67.0416 54.7157C69.9929 49.691 71.6803 44.0248 71.9589 38.2041C72.2374 32.3834 71.0988 26.5821 68.6408 21.2984C66.1827 16.0148 62.4788 11.4069 57.8472 7.87042C53.2156 4.33397 47.7947 1.97473 42.0502 0.995379L41.1956 6.00813C46.1287 6.84915 50.7838 8.87514 54.7612 11.9121C58.7386 14.949 61.9194 18.906 64.0302 23.4433C66.141 27.9806 67.1188 32.9625 66.8796 37.9611C66.6404 42.9596 65.1913 47.8254 62.6569 52.1404L67.0416 54.7157Z"/>
</mask>
<path d="M67.0416 54.7157C69.9929 49.691 71.6803 44.0248 71.9589 38.2041C72.2374 32.3834 71.0988 26.5821 68.6408 21.2984C66.1827 16.0148 62.4788 11.4069 57.8472 7.87042C53.2156 4.33397 47.7947 1.97473 42.0502 0.995379L41.1956 6.00813C46.1287 6.84915 50.7838 8.87514 54.7612 11.9121C58.7386 14.949 61.9194 18.906 64.0302 23.4433C66.141 27.9806 67.1188 32.9625 66.8796 37.9611C66.6404 42.9596 65.1913 47.8254 62.6569 52.1404L67.0416 54.7157Z" stroke="#DB4437" stroke-width="10" mask="url(#path-5-inside-2_20_3042)"/>
</svg>
